# xmcd
#
# Track frame offsets:
# 150
# 13547
# 26577
# 40442
# 54077
# 68167
# 89247
# 101885
# 112947
# 128547
# 147705
#
# Disc length: 2172 seconds
#
#
# Revision: 0
# Processed by: cddbd v1.5.2PL0 Copyright (c) Steve Scherf et al.
# Submitted via: FreeRIP 2.945 
#
DISCID=97087a0b
DTITLE=Waldir Silva - Boleros de Ouro
DYEAR=1900
DGENRE=
TTITLE0=História de um amor - El dia que me quieras
TTITLE1=Que queres tu de mim - Brigas
TTITLE2=Zingara
TTITLE3=Dio come ti amo
TTITLE4=Amapola - Santa
TTITLE5=Siempre em mi corazon - La violetera
TTITLE6=Solamente una vez - Aquellos ojos verdes
TTITLE7=Besame mcho - quiereme mucho
TTITLE8=Moon Over Naples
TTITLE9=La Golondrina - La paloma
TTITLE10=Perfídia - La barca
EXTD=
EXTT0=
EXTT1=
EXTT2=
EXTT3=
EXTT4=
EXTT5=
EXTT6=
EXTT7=
EXTT8=
EXTT9=
EXTT10=
PLAYORDER=
